<svg id="Layer_1" data-name="Layer 1" xmlns="http://www.w3.org/2000/svg" xmlns:xlink="http://www.w3.org/1999/xlink" viewBox="0 0 288.95 246.95"><defs><style>.cls-1{fill:none;}.cls-2{clip-path:url(#clip-path);}.cls-3{fill:#231f20;}</style><clipPath id="clip-path" transform="translate(0.01)"><rect class="cls-1" width="288.99" height="246.94"/></clipPath></defs><title>logo</title><g class="cls-2"><path class="cls-3" d="M194.74,172.14a117.84,117.84,0,0,1-9.21-166.4q2.65-3,5.5-5.74l12.48,12.68a100.06,100.06,0,0,0-1.83,141.49q2.41,2.47,5,4.78Z" transform="translate(0.01)"/><path class="cls-3" d="M217.49,139.08a76.5,76.5,0,0,1-2.2-107.58L227.54,43a59.66,59.66,0,0,0,1.73,84Z" transform="translate(0.01)"/><path class="cls-3" d="M91.06,172.14L79.13,158.95a100.91,100.91,0,0,0,33.38-74.63A99.89,99.89,0,0,0,82.29,12.68L94.81,0a117.54,117.54,0,0,1,35.53,84.32A118.7,118.7,0,0,1,91.1,172.13" transform="translate(0.01)"/><path class="cls-3" d="M68.29,139.08l-11.77-12a59.66,59.66,0,0,0,1.74-84L70.5,31.5a76.52,76.52,0,0,1,21,52.67,76.3,76.3,0,0,1-23.24,54.91" transform="translate(0.01)"/><path class="cls-3" d="M23.25,223c0-7.56,4.45-13.8,12.93-13.8,8.77,0,11.6,6,11.6,12.39a19.46,19.46,0,0,1-.16,2.49H30.81c0.12,4.4,1.78,7.23,7,7.23a20.14,20.14,0,0,0,8-1.63v5.57a24.3,24.3,0,0,1-8.59,1.53c-9.94,0-14.11-5.65-14.11-13.73m17.27-3.16v-0.27c0-2.55-1.39-5.05-4.34-5.05s-4.76,1.9-5.1,5.32h9.44Z" transform="translate(0.01)"/><path class="cls-3" d="M65.81,233.59a8.76,8.76,0,0,1-7.1,3.15c-5,0-8.66-2.6-8.66-7.71,0-5.75,5-8.15,12.48-8.15,0.89,0,1.72.06,2.28,0.11v-1.3c0-3.1-1.33-4.84-5-4.84a20.78,20.78,0,0,0-7,1.4v-5.6a25,25,0,0,1,8.32-1.41c7.22,0,11.16,3.27,11.16,9.78v10.23c0,1.58.73,2.07,1.78,2.07a7.15,7.15,0,0,0,1-.11v4.72a7.2,7.2,0,0,1-3.78.82c-2.83,0-4.6-1.19-5.43-3.15m-1-3.47v-5a10.79,10.79,0,0,0-1.72-.11c-3.88,0-5.71,1-5.71,3.53,0,2.07,1.33,3,3.67,3a5.34,5.34,0,0,0,3.71-1.43" transform="translate(0.01)"/><path class="cls-3" d="M79.37,209.64h7.28v2.83a8.88,8.88,0,0,1,6.87-3.27,8.12,8.12,0,0,1,2.28.32v6.36a12,12,0,0,0-2.89-.33,10.71,10.71,0,0,0-6.18,1.85v18.89H79.37V209.64Z" transform="translate(0.01)"/><path class="cls-3" d="M100.07,209.64h7.27v2.11a12.14,12.14,0,0,1,7.49-2.55c6.66,0,8.94,4,8.94,9.39V236.3h-7.39V219.69c0-3.16-1.05-4.79-4.28-4.79a7.85,7.85,0,0,0-4.6,1.68V236.3h-7.43V209.64Z" transform="translate(0.01)"/><path class="cls-3" d="M143.41,209.64h7.25v2.11a12.19,12.19,0,0,1,7.5-2.55c6.65,0,8.93,4,8.93,9.39V236.3h-7.38V219.69c0-3.16-1.05-4.79-4.28-4.79a7.86,7.86,0,0,0-4.6,1.68V236.3h-7.42V209.64Z" transform="translate(0.01)"/><path class="cls-3" d="M170.58,240.06c0-2.94,2.67-4.9,5-5.77a4.34,4.34,0,0,1-2.66-4.11,5.13,5.13,0,0,1,3.16-4.4,8.29,8.29,0,0,1-4.28-7.44c0-5.32,4.22-9.13,11.34-9.13a27.22,27.22,0,0,1,4.55.44h9.2v4.67H193a6.35,6.35,0,0,1,1.61,4.41c0,4.94-4.11,8.63-11.38,8.63a17.31,17.31,0,0,1-3-.28,2,2,0,0,0-.94,1.58c0,0.92.55,1.41,2.34,1.53l5.54,0.27c5.27,0.21,9.27,2.12,9.27,7.49,0,5.81-5.32,9-13.88,9-7.65,0-11.93-2.72-11.93-6.89m18.59-1.25c0-2.22-1.61-2.78-5.49-2.93-1.77-.05-3.16-0.16-3.78-0.22-1.22.59-2.72,1.63-2.72,3.47,0,2.17,2.22,3.15,5.66,3.15,4.43,0,6.32-1.31,6.32-3.48m-1.49-20.48c0-2.44-1.4-4.68-4.45-4.68s-4.49,2.24-4.49,4.68a4.28,4.28,0,0,0,4.49,4.61c3,0,4.45-2.17,4.45-4.61" transform="translate(0.01)"/><path class="cls-3" d="M216.73,202.47h5.83l12.25,33.83h-5.39l-2.88-8.42H211.9l-3,8.42h-5Zm8.49,21.45-3.71-10.85c-0.78-2.35-1.72-5.07-2.06-6.59h-0.11c-0.44,1.69-1.5,4.72-2.37,7.16l-3.68,10.27h11.93Z" transform="translate(0.01)"/><path class="cls-3" d="M259.56,246.08v-3.64a12.64,12.64,0,0,0,3,.38c3,0,4.39-2,5.16-4.55l0.61-1.9-9.94-26.57h5.06l7.36,20.64h0.11l6.49-20.64h4.83l-10.38,29.76c-1.73,4.83-4,7-9,7a10.11,10.11,0,0,1-3.38-.43" transform="translate(0.01)"/><path class="cls-3" d="M237.36,199.78V232c0,3.63,2.3,4.76,5,4.76h0a7.94,7.94,0,0,0,2.95-.5v-3.36a7.17,7.17,0,0,1-1,.11c-1.27,0-2.09-.51-2.09-2.24V199.7h-4.78v0.08h-0.08Z" transform="translate(0.01)"/><path class="cls-3" d="M249.08,199.78V232c0,3.63,2.3,4.76,5,4.76h0a7.94,7.94,0,0,0,3-.5v-3.36a7.28,7.28,0,0,1-1,.11c-1.27,0-2.09-.51-2.09-2.24V199.7h-4.78v0.08h-0.08Z" transform="translate(0.01)"/><path class="cls-3" d="M129.42,202.25a4,4,0,1,1,4.22,3.76h-0.22a3.81,3.81,0,0,1-4-3.62q0-.08,0-0.15m0.22,7.36h7.49v26.66h-7.49V209.61Z" transform="translate(0.01)"/><polygon class="cls-3" points="280 230.96 278.45 230.96 278.45 230.39 282.33 230.39 282.33 230.96 280.69 230.96 280.69 235.97 280 235.97 280 230.96"/><path class="cls-3" d="M283.74,230.39h0.89l1.06,3.68a14,14,0,0,1,.3,1.39h0c0.07-.41.2-1,0.3-1.36l1-3.7h0.9l0.75,5.59h-0.65l-0.48-3.74c0-.42-0.08-0.88-0.1-1.19h0c-0.07.3-.16,0.78-0.27,1.13l-1.07,3.8h-0.81l-1.08-3.83c-0.1-.35-0.22-0.85-0.28-1.11h0c0,0.26-.06.87-0.11,1.25L283.62,236H283Z" transform="translate(0.01)"/><path d="M22.38,231.27v6.34H0V199.89h7.8v31.38H22.38Z" transform="translate(0.01)"/></g></svg>