<svg class="ip-inner" width="100%" height="100%" viewBox="0 0 300 160" preserveAspectRatio="xMidYMin meet" aria-labelledby="logo_title">
<svg id="Layer_1" data-name="Layer 1" xmlns="http://www.w3.org/2000/svg" xmlns:xlink="http://www.w3.org/1999/xlink" viewBox="0 0 1695.53 1440.15">
	<defs>
	
		<clipPath id="clip-path" transform="translate(-2103.47 -126.77)">
			<rect class="cls-1" x="2113.68" y="126.78" width="1685.33" height="1440.14" />
		</clipPath>
	</defs>
	<title>logo</title>
	<g class="cls-2">
		<path class="cls-3" d="M3249.33,1130.65c-145.44-131.44-228.87-318.1-228.87-512.11,0-185.64,73.61-360.26,207.23-491.77l72.75,73.92c-113.66,111.87-176.29,260.25-176.29,417.85,0,164.7,71,323.36,194.73,435.21Z"
			transform="translate(-2103.47 -126.77)" />
		<path class="cls-3" d="M3382,937.87c-87.34-85.53-135.46-199.27-135.46-320.25,0-114.25,43.58-223.34,122.64-307.14l71.42,67.38c-61.81,65.5-95.86,150.65-95.86,239.77,0,94.36,37.64,183.16,105.93,250.06Z"
			transform="translate(-2103.47 -126.77)" />
		<path class="cls-3" d="M2644.68,1130.65l-69.56-76.9c123.75-111.89,194.71-270.51,194.71-435.21,0-157.59-62.58-306-176.27-417.85l72.77-73.92C2800,258.28,2873.54,432.9,2873.54,618.54c0,194-83.42,380.65-228.87,512.11"
			transform="translate(-2103.47 -126.77)" />
		<path class="cls-3" d="M2511.92,937.87l-68.67-70.19c68.36-66.9,106-155.7,106-250.06,0-89.07-34.05-174.2-95.87-239.79l71.44-67.36c79.09,83.84,122.62,192.94,122.62,307.14,0,121-48.12,234.74-135.52,320.25"
			transform="translate(-2103.47 -126.77)" />
		<path class="cls-3" d="M2249.25,1427.29c0-44.08,26-80.48,75.42-80.48,51.14,0,67.67,34.8,67.67,72.27a113.5,113.5,0,0,1-1,14.51h-97.76c0.69,25.65,10.36,42.14,41.06,42.14,19.15,0,35.66-4.44,47-9.5v32.26c-13,5.07-30.76,8.9-50.12,8.9-58,0-82.28-32.95-82.28-80.09m100.72-18.4v-1.58c0-14.9-8.13-29.47-25.3-29.47-16.82,0-27.78,11.11-29.72,31.05h55Z"
			transform="translate(-2103.47 -126.77)" />
		<path class="cls-3" d="M2497.48,1489c-6.79,9.46-21.67,18.36-41.43,18.36-29.45,0-50.47-15.17-50.47-45,0-33.55,29.11-47.52,72.79-47.52,5.21,0,10,.35,13.28.67V1408c0-18.09-7.73-28.22-29.11-28.22-16.21,0-32.07,4.46-41.12,8V1355a146,146,0,0,1,48.52-8.23c42.1,0,65.06,19,65.06,57v59.83c0,9.19,4.25,12,10.36,12a41.68,41.68,0,0,0,5.81-.63v27.51c-4.19,2.27-10,4.77-22,4.77-16.48,0-26.8-6.94-31.66-18.36m-5.84-20.22v-29.18a62.94,62.94,0,0,0-10-.63c-22.65,0-33.32,6-33.32,20.57,0,12,7.77,17.74,21.4,17.74a31.13,31.13,0,0,0,22-8.5"
			transform="translate(-2103.47 -126.77)" />
		<path class="cls-3" d="M2576.5,1349.36H2619v16.48c10.27-12.09,24.22-19,40.08-19a47.38,47.38,0,0,1,13.32,1.9v37.1a69.86,69.86,0,0,0-16.86-1.92,62.45,62.45,0,0,0-36,10.8v110.18h-43V1349.36Z"
			transform="translate(-2103.47 -126.77)" />
		<path class="cls-3" d="M2697.24,1349.36h42.41v12.3a70.79,70.79,0,0,1,43.68-14.86c38.87,0,52.14,23.49,52.14,54.79v103.26H2792.4V1408c0-18.4-6.15-27.91-25-27.91-10.69,0-20.07,4.77-26.84,9.82v115h-43.35V1349.36Z"
			transform="translate(-2103.47 -126.77)" />
		<path class="cls-3" d="M2950,1349.36h42.31v12.3a71.07,71.07,0,0,1,43.76-14.86c38.78,0,52.1,23.49,52.1,54.79v103.26h-43.08V1408c0-18.4-6.15-27.91-24.95-27.91-10.67,0-20,4.77-26.82,9.82v115H2950V1349.36Z"
			transform="translate(-2103.47 -126.77)" />
		<path class="cls-3" d="M3108.44,1526.75c0-17.17,15.57-28.55,29.13-33.66-9-4.09-15.53-12.25-15.53-24,0-13,10.07-21.57,18.44-25.68-15.88-9.52-24.95-24.11-24.95-43.41,0-31.05,24.61-53.23,66.13-53.23a158.77,158.77,0,0,1,26.51,2.56h53.66v27.22H3238.9c5.52,6,9.38,14.57,9.38,25.7,0,28.8-24,50.33-66.38,50.33a101,101,0,0,1-17.44-1.6c-2.61,1.87-5.5,5.09-5.5,9.21,0,5.38,3.23,8.23,13.63,8.9l32.32,1.56c30.72,1.25,54.06,12.34,54.06,43.68,0,33.89-31.05,52.58-80.94,52.58-44.64,0-69.59-15.84-69.59-40.18m108.43-7.32c0-13-9.38-16.21-32-17.09-10.32-.31-18.44-1-22-1.27-7.13,3.44-15.84,9.48-15.84,20.26,0,12.65,12.92,18.38,33,18.38,25.84,0,36.87-7.65,36.87-20.28M3208.18,1400c0-14.23-8.15-27.28-26-27.28s-26.2,13-26.2,27.28c0,14.52,8.44,26.9,26.2,26.9s26-12.65,26-26.9"
			transform="translate(-2103.47 -126.77)" />
		<path class="cls-3" d="M3377.61,1307.56h34l71.5,197.29h-31.43l-16.8-49.08h-85.44l-17.51,49.08h-29.07Zm49.5,125.08-21.63-63.29c-4.56-13.69-10-29.55-12-38.41h-0.67c-2.54,9.86-8.75,27.55-13.84,41.78l-21.49,59.92h69.63Z"
			transform="translate(-2103.47 -126.77)" />
		<path class="cls-3" d="M3627.37,1561.9v-21.24a73.74,73.74,0,0,0,17.44,2.19c17.53,0,25.59-11.71,30.09-26.55l3.58-11.09-58-154.93H3650l43.08,120.37h0.65l37.85-120.37h28.2l-60.52,173.58c-10.07,28.16-23.34,40.53-52.18,40.53-8.73,0-13.55-.58-19.69-2.5"
			transform="translate(-2103.47 -126.77)" />
		<path class="cls-3" d="M3497.9,1291.87v187.85c-0.08,21.15,13.4,27.74,28.88,27.74h-0.12a46.29,46.29,0,0,0,17.19-2.9V1485a41.83,41.83,0,0,1-5.88.63c-7.42,0-12.19-3-12.19-13.07V1291.4H3497.9v0.48Z"
			transform="translate(-2103.47 -126.77)" />
		<path class="cls-3" d="M3566.25,1291.87v187.85c-0.08,21.15,13.4,27.74,28.88,27.74H3595a46.3,46.3,0,0,0,17.19-2.9V1485a42.48,42.48,0,0,1-5.88.63c-7.42,0-12.17-3-12.17-13.07V1291.4h-27.9v0.48Z"
			transform="translate(-2103.47 -126.77)" />
		<path class="cls-3" d="M2868.43,1306.44c0-11.86,9.77-21.74,23.28-21.74,13.25,0,23.11,9.88,23.11,21.74s-9.86,22-23.11,22c-13.5,0-23.28-10.13-23.28-22m1.29,42.91h43.7v155.49h-43.7V1349.35Z"
			transform="translate(-2103.47 -126.77)" />
		<polygon class="cls-3" points="1643.05 1346.93 1634.01 1346.93 1634.01 1343.6 1656.64 1343.6 1656.64 1346.93 1647.09 1346.93 1647.09 1376.17 1643.05 1376.17 1643.05 1346.93"
		/>
		<path class="cls-3" d="M3768.41,1470.36h5.21l6.17,21.44a81.88,81.88,0,0,1,1.73,8.11h0.08c0.4-2.42,1.17-5.81,1.75-8l6-21.59h5.23L3799,1503h-3.77l-2.9-21.82c-0.29-2.46-.46-5.15-0.6-6.92h-0.08c-0.4,1.77-1,4.52-1.56,6.59l-6.25,22.15h-4.71l-6.27-22.32c-0.6-2.06-1.27-5-1.6-6.46h-0.06c-0.13,1.54-.38,5.09-0.65,7.27l-2.73,21.51h-3.71Z"
			transform="translate(-2103.47 -126.77)" />
		<path class="cls-3" d="M2241.33,1472.14v41.54H2103.47V1303H2151v169.16h90.3Z" transform="translate(-2103.47 -126.77)"
		/>
	</g>
</svg>